<svg xmlns="http://www.w3.org/2000/svg" xmlns:xlink="http://www.w3.org/1999/xlink" version="1.0" x="0" y="0" width="2400" height="1420.3830204540536" viewBox="133.28000007629396 103.26814399719238 73.43999221801758 43.4637158203125" preserveAspectRatio="xMidYMid meet" color-interpolation-filters="sRGB"><g><defs><linearGradient id="92" x1="0%" y1="0%" x2="100%" y2="0%"><stop offset="0%" stop-color="#fa71cd"></stop> <stop offset="100%" stop-color="#9b59b6"></stop></linearGradient><linearGradient id="93" x1="0%" y1="0%" x2="100%" y2="0%"><stop offset="0%" stop-color="#f9d423"></stop> <stop offset="100%" stop-color="#f83600"></stop></linearGradient><linearGradient id="94" x1="0%" y1="0%" x2="100%" y2="0%"><stop offset="0%" stop-color="#0064d2"></stop> <stop offset="100%" stop-color="#1cb0f6"></stop></linearGradient><linearGradient id="95" x1="0%" y1="0%" x2="100%" y2="0%"><stop offset="0%" stop-color="#f00978"></stop> <stop offset="100%" stop-color="#3f51b1"></stop></linearGradient><linearGradient id="96" x1="0%" y1="0%" x2="100%" y2="0%"><stop offset="0%" stop-color="#7873f5"></stop> <stop offset="100%" stop-color="#ec77ab"></stop></linearGradient><linearGradient id="97" x1="0%" y1="0%" x2="100%" y2="0%"><stop offset="0%" stop-color="#f9d423"></stop> <stop offset="100%" stop-color="#e14fad"></stop></linearGradient><linearGradient id="98" x1="0%" y1="0%" x2="100%" y2="0%"><stop offset="0%" stop-color="#009efd"></stop> <stop offset="100%" stop-color="#2af598"></stop></linearGradient><linearGradient id="99" x1="0%" y1="0%" x2="100%" y2="0%"><stop offset="0%" stop-color="#ffcc00"></stop> <stop offset="100%" stop-color="#00b140"></stop></linearGradient><linearGradient id="100" x1="0%" y1="0%" x2="100%" y2="0%"><stop offset="0%" stop-color="#d51007"></stop> <stop offset="100%" stop-color="#ff8177"></stop></linearGradient><linearGradient id="102" x1="0%" y1="0%" x2="100%" y2="0%"><stop offset="0%" stop-color="#a2b6df"></stop> <stop offset="100%" stop-color="#0c3483"></stop></linearGradient><linearGradient id="103" x1="0%" y1="0%" x2="100%" y2="0%"><stop offset="0%" stop-color="#7ac5d8"></stop> <stop offset="100%" stop-color="#eea2a2"></stop></linearGradient><linearGradient id="104" x1="0%" y1="0%" x2="100%" y2="0%"><stop offset="0%" stop-color="#00ecbc"></stop> <stop offset="100%" stop-color="#007adf"></stop></linearGradient><linearGradient id="105" x1="0%" y1="0%" x2="100%" y2="0%"><stop offset="0%" stop-color="#b88746"></stop> <stop offset="100%" stop-color="#fdf5a6"></stop></linearGradient></defs><g class="imagesvg isNoFont" transform="translate(140,109.98814105987549)"><g mask="url(#0b8ece0c-3e36-4fed-836e-72769002d1d8)"><rect fill="#000000" fill-opacity="0" stroke-width="2" x="0" y="0" width="60" height="30.023718737802863" class="image-rect"></rect> <svg x="0" y="0" width="60" height="30.023718737802863" filtersec="colorsf3024390379" class="image-svg-svg primary" style="overflow: visible;"><svg xmlns="http://www.w3.org/2000/svg" xmlns:xlink="http://www.w3.org/1999/xlink" version="1.1" x="0px" y="0px" viewBox="7.257547855377197 28.610376358032227 85.49044799804688 42.779022216796875" enable-background="new 0 0 100 100" xml:space="preserve"><path d="M92.727,51.049c-0.215,3.896-1.363,7.488-3.523,10.743c-2.189,3.299-5.076,5.812-8.649,7.521  c-3.201,1.531-6.584,2.199-10.128,2.058c-4.68-0.188-8.811-1.793-12.379-4.835c-2.268-1.932-4.105-4.233-5.759-6.693  c-2.16-3.216-3.932-6.655-5.798-10.04c-1.436-2.604-2.891-5.193-4.661-7.589c-1.56-2.111-3.314-4.024-5.573-5.418  c-1.952-1.203-4.08-1.844-6.363-2.02c-2.426-0.187-4.784,0.117-7.025,1.063c-4.589,1.932-7.634,5.295-9.001,10.088  c-2.301,8.077,2.494,16.507,10.639,18.794c2.057,0.578,4.146,0.685,6.263,0.398c3.077-0.413,5.673-1.788,7.907-3.903  c1.912-1.805,3.411-3.932,4.792-6.15c0.112-0.18,0.224-0.36,0.353-0.564c0.063,0.104,0.112,0.176,0.157,0.253  c1.05,1.826,2.097,3.652,3.153,5.474c0.094,0.16,0.079,0.258-0.022,0.401c-1.479,2.097-3.107,4.06-5.049,5.749  c-2.76,2.398-5.906,4.014-9.53,4.65c-4.535,0.799-8.904,0.279-13.071-1.695c-3.935-1.865-7.018-4.69-9.26-8.423  c-1.406-2.337-2.322-4.86-2.734-7.554c-0.166-1.093-0.244-4.591-0.193-5.154c0.431-4.792,2.237-8.998,5.466-12.562  c3.055-3.373,6.828-5.551,11.277-6.535c2.551-0.565,5.123-0.632,7.709-0.277c4.917,0.673,8.96,2.989,12.347,6.542  c1.871,1.962,3.488,4.127,4.854,6.457c1.914,3.264,3.726,6.586,5.584,9.883c1.454,2.583,2.965,5.131,4.851,7.431  c1.758,2.144,3.767,3.973,6.367,5.058c2.154,0.899,4.403,1.191,6.724,1.032c2.646-0.184,5.09-0.989,7.289-2.463  c3.63-2.432,5.906-5.796,6.652-10.11c1.134-6.548-1.871-12.792-7.675-16.038c-2.529-1.415-5.26-2.016-8.159-1.87  c-2.113,0.106-4.12,0.586-6.004,1.563c-1.505,0.78-2.824,1.812-4.014,3.013c-1.621,1.637-2.95,3.497-4.172,5.44  c-0.068,0.109-0.142,0.218-0.23,0.354c-0.086-0.149-0.153-0.26-0.22-0.371c-1.021-1.759-2.044-3.518-3.067-5.274  c-0.075-0.129-0.123-0.222-0.014-0.375c1.715-2.359,3.615-4.538,5.942-6.321c2.636-2.018,5.579-3.329,8.859-3.858  c4.461-0.72,8.769-0.202,12.862,1.751c4.26,2.033,7.51,5.149,9.746,9.307c1.625,3.02,2.436,6.26,2.501,9.688  C92.748,49.764,92.743,50.73,92.727,51.049z M31.576,40.202c-0.953-0.293-1.964-0.452-3.013-0.452  c-5.66,0-10.248,4.588-10.248,10.249c0,5.659,4.588,10.247,10.248,10.247c5.66,0,10.249-4.588,10.249-10.247  c0-1.049-0.159-2.061-0.452-3.013c-0.803,1.788-2.597,3.036-4.684,3.036c-2.836,0-5.135-2.299-5.135-5.135  C28.54,42.798,29.788,41.005,31.576,40.202z M74.364,40.202c-0.953-0.293-1.964-0.452-3.014-0.452  c-5.659,0-10.247,4.588-10.247,10.249c0,5.659,4.588,10.247,10.247,10.247c5.66,0,10.248-4.588,10.248-10.247  c0-1.049-0.158-2.061-0.451-3.013c-0.804,1.788-2.597,3.036-4.685,3.036c-2.836,0-5.135-2.299-5.135-5.135  C71.328,42.798,72.576,41.005,74.364,40.202z"></path></svg><rect v-gra="id" width="71.99999237060547" height="42.02371597290039" transform="translate(-6, -6)" style="pointer-events:none;" fill="url(#z3Amjc6sQpOHn2SOta0kB)"></rect></svg> <defs><filter id="colors4200981408"><feColorMatrix type="matrix" values="0 0 0 0 0.265625  0 0 0 0 0.84765625  0 0 0 0 0.8984375  0 0 0 1 0" class="icon-feColorMatrix "></feColorMatrix></filter> <filter id="colorsf3024390379"><feColorMatrix type="matrix" values="0 0 0 0 0.99609375  0 0 0 0 0.99609375  0 0 0 0 0.99609375  0 0 0 1 0" class="icon-fecolormatrix"></feColorMatrix></filter> <filter id="colorsb4012717308"><feColorMatrix type="matrix" values="0 0 0 0 0  0 0 0 0 0  0 0 0 0 0  0 0 0 1 0" class="icon-fecolormatrix"></feColorMatrix></filter></defs></g></g><defs v-gra="od"></defs><defs v-gra="id"><filter id="61520628-f7a2-4dfe-be5c-946739630ccb" filterUnits="userSpaceOnUse"><feColorMatrix type="matrix" values="0 0 0 0 0.99609375  0 0 0 0 0.99609375  0 0 0 0 0.99609375  0 0 0 1 0"></feColorMatrix></filter><linearGradient x1="0" y1="1" x2="0" y2="0" id="z3Amjc6sQpOHn2SOta0kB"><stop offset="0%" stop-color="#00c5fb"></stop><stop offset="100%" stop-color="#175bea"></stop></linearGradient><filter id="42443b3f1de60f6b6fd3b6a9844b4764" filterUnits="objectBoundingBox"><feColorMatrix type="matrix" values="0 0 0 0 0.99609375  0 0 0 0 0.99609375  0 0 0 0 0.99609375  0 0 0 1 0"></feColorMatrix></filter></defs><mask v-gra="im" id="0b8ece0c-3e36-4fed-836e-72769002d1d8"><svg filter="url(#61520628-f7a2-4dfe-be5c-946739630ccb)" x="0" y="0" width="60" height="30.023718737802863" filtersec="colorsf3024390379" class="image-svg-svg primary" style="overflow: visible;"><svg xmlns="http://www.w3.org/2000/svg" xmlns:xlink="http://www.w3.org/1999/xlink" version="1.1" x="0px" y="0px" viewBox="7.257547855377197 28.610376358032227 85.49044799804688 42.779022216796875" enable-background="new 0 0 100 100" xml:space="preserve"><path d="M92.727,51.049c-0.215,3.896-1.363,7.488-3.523,10.743c-2.189,3.299-5.076,5.812-8.649,7.521  c-3.201,1.531-6.584,2.199-10.128,2.058c-4.68-0.188-8.811-1.793-12.379-4.835c-2.268-1.932-4.105-4.233-5.759-6.693  c-2.16-3.216-3.932-6.655-5.798-10.04c-1.436-2.604-2.891-5.193-4.661-7.589c-1.56-2.111-3.314-4.024-5.573-5.418  c-1.952-1.203-4.08-1.844-6.363-2.02c-2.426-0.187-4.784,0.117-7.025,1.063c-4.589,1.932-7.634,5.295-9.001,10.088  c-2.301,8.077,2.494,16.507,10.639,18.794c2.057,0.578,4.146,0.685,6.263,0.398c3.077-0.413,5.673-1.788,7.907-3.903  c1.912-1.805,3.411-3.932,4.792-6.15c0.112-0.18,0.224-0.36,0.353-0.564c0.063,0.104,0.112,0.176,0.157,0.253  c1.05,1.826,2.097,3.652,3.153,5.474c0.094,0.16,0.079,0.258-0.022,0.401c-1.479,2.097-3.107,4.06-5.049,5.749  c-2.76,2.398-5.906,4.014-9.53,4.65c-4.535,0.799-8.904,0.279-13.071-1.695c-3.935-1.865-7.018-4.69-9.26-8.423  c-1.406-2.337-2.322-4.86-2.734-7.554c-0.166-1.093-0.244-4.591-0.193-5.154c0.431-4.792,2.237-8.998,5.466-12.562  c3.055-3.373,6.828-5.551,11.277-6.535c2.551-0.565,5.123-0.632,7.709-0.277c4.917,0.673,8.96,2.989,12.347,6.542  c1.871,1.962,3.488,4.127,4.854,6.457c1.914,3.264,3.726,6.586,5.584,9.883c1.454,2.583,2.965,5.131,4.851,7.431  c1.758,2.144,3.767,3.973,6.367,5.058c2.154,0.899,4.403,1.191,6.724,1.032c2.646-0.184,5.09-0.989,7.289-2.463  c3.63-2.432,5.906-5.796,6.652-10.11c1.134-6.548-1.871-12.792-7.675-16.038c-2.529-1.415-5.26-2.016-8.159-1.87  c-2.113,0.106-4.12,0.586-6.004,1.563c-1.505,0.78-2.824,1.812-4.014,3.013c-1.621,1.637-2.95,3.497-4.172,5.44  c-0.068,0.109-0.142,0.218-0.23,0.354c-0.086-0.149-0.153-0.26-0.22-0.371c-1.021-1.759-2.044-3.518-3.067-5.274  c-0.075-0.129-0.123-0.222-0.014-0.375c1.715-2.359,3.615-4.538,5.942-6.321c2.636-2.018,5.579-3.329,8.859-3.858  c4.461-0.72,8.769-0.202,12.862,1.751c4.26,2.033,7.51,5.149,9.746,9.307c1.625,3.02,2.436,6.26,2.501,9.688  C92.748,49.764,92.743,50.73,92.727,51.049z M31.576,40.202c-0.953-0.293-1.964-0.452-3.013-0.452  c-5.66,0-10.248,4.588-10.248,10.249c0,5.659,4.588,10.247,10.248,10.247c5.66,0,10.249-4.588,10.249-10.247  c0-1.049-0.159-2.061-0.452-3.013c-0.803,1.788-2.597,3.036-4.684,3.036c-2.836,0-5.135-2.299-5.135-5.135  C28.54,42.798,29.788,41.005,31.576,40.202z M74.364,40.202c-0.953-0.293-1.964-0.452-3.014-0.452  c-5.659,0-10.247,4.588-10.247,10.249c0,5.659,4.588,10.247,10.247,10.247c5.66,0,10.248-4.588,10.248-10.247  c0-1.049-0.158-2.061-0.451-3.013c-0.804,1.788-2.597,3.036-4.685,3.036c-2.836,0-5.135-2.299-5.135-5.135  C71.328,42.798,72.576,41.005,74.364,40.202z"></path></svg></svg></mask></g></svg>